# xmcd
#
# Track frame offsets:
# 150
# 25631
# 45487
# 70354
# 91048
# 122902
# 135243
# 159097
# 191654
# 211331
# 233733
# 252164
# 272642
# 289303
# 303952
# 320098
#
# Disc length: 4633 seconds
#
#
# Revision: 0
# Processed by: cddbd v1.5.2PL0 Copyright (c) Steve Scherf et al.
# Submitted via: FreeRIP 2.945 
#
DISCID=d7121710
DTITLE=The Mighty Orq - LIVE: LOST IN GERMANY
DYEAR=2011
DGENRE=Blues ´n Rock
TTITLE0=IF YOU WILL
TTITLE1=4+1
TTITLE2=CARRY ME HOME
TTITLE3=WALKING BLUES (ROBERT JOHNSON)
TTITLE4=H.O.
TTITLE5=SO SAD!
TTITLE6=HANGIN ON
TTITLE7=POSSUM SONG
TTITLE8=PACK IT UP (FREDDIE KING)
TTITLE9=FALLING DOWN
TTITLE10=DEVIL AT YOUR BACK
TTITLE11=COLD HEARTED
TTITLE12=SHE LETS ME LIE
TTITLE13=LET ME HAVE MY FUN -- Bonus Tracks: LIVE IN USA:
TTITLE14=TO SORRY (DOYLE BRAMHALL) -- Bonus Tracks: LIVE IN USA:
TTITLE15=SWEET INBETWEEN -- Bonus Tracks: LIVE IN USA:
EXTD=Postet by The Q!
EXTT0=
EXTT1=
EXTT2=
EXTT3=
EXTT4=
EXTT5=
EXTT6=
EXTT7=
EXTT8=
EXTT9=
EXTT10=
EXTT11=
EXTT12=
EXTT13=
EXTT14=
EXTT15=
PLAYORDER=
